<svg id="Layer_1" data-name="Layer 1" xmlns="http://www.w3.org/2000/svg" viewBox="0 0 48 48"><title>winky</title><path d="M11.06,24A12.89,12.89,0,0,1,14,15.84H34A12.94,12.94,0,1,1,11.06,24Zm4.09-1.56,1.11,1.19a0.62,0.62,0,0,0,.88,0l5-4.69a0.63,0.63,0,0,0,0-.88L21,16.89a0.62,0.62,0,0,0-.88,0l-5,4.69A0.63,0.63,0,0,0,15.15,22.44ZM17,28.1c-0.49.4-.94,0.72-0.18,1.74A8.92,8.92,0,0,0,24,33.26a9,9,0,0,0,7.18-3.4c0.76-1,.31-1.34-0.17-1.74a1.18,1.18,0,0,0-1.74.17,6.8,6.8,0,0,1-10.55,0A1.18,1.18,0,0,0,17,28.1Zm15.35-5.66a0.63,0.63,0,0,0,0-.88l-5-4.69a0.62,0.62,0,0,0-.88,0l-1.11,1.2a0.63,0.63,0,0,0,0,.88l5,4.69a0.62,0.62,0,0,0,.88,0ZM8,24a15.93,15.93,0,0,1,2.24-8.16h2a14.35,14.35,0,1,0,23.6,0h2A16,16,0,1,1,8,24ZM24.62,7A0.63,0.63,0,0,0,25,6.27V5.86c4,0.35,14.71,1.39,14.72,1,0-.87-2.7-2.51-4.73-3-3-.69-7.85.2-9.94,0.58A0.41,0.41,0,0,0,24.62,4H24.53C24.45,3,24.25,3.07,24,3.07S23.55,3,23.47,4H23.38C23.14,4,23,4,23,4.4h0C19,4.06,8.29,3,8.28,3.42c0,0.87,2.73,2.51,4.76,3,3,0.69,8-.05,10-0.44V6.27a0.63,0.63,0,0,0,.38.73H23V8a15.69,15.69,0,0,0-12.17,7H37.17A15.38,15.38,0,0,0,25.24,8.08,0.49,0.49,0,0,1,25,8V7H24.62Z" style="fill:#ea1d76"/><rect width="48" height="48" style="fill:none"/></svg>